<svg xmlns="http://www.w3.org/2000/svg" viewBox="0 0 269.16 271.19"><defs><style>.cls-1{fill:#c7dbff;}.cls-2,.cls-6{fill:none;}.cls-2,.cls-8{stroke:#fff;}.cls-2,.cls-6,.cls-8{stroke-linecap:round;stroke-miterlimit:10;}.cls-3{fill:#1c2340;}.cls-4{fill:#ffa639;}.cls-5{fill:#fff;}.cls-6{stroke:#1c2340;}.cls-7,.cls-8{fill:#ff7139;}</style></defs><title>hero-3</title><g id="Layer_2" data-name="Layer 2"><g id="Objects"><path class="cls-1" d="M243.46,271.19H37.3a4.13,4.13,0,0,1-4.12-4.12h0A4.13,4.13,0,0,1,37.3,263H243.46a4.14,4.14,0,0,1,4.13,4.12h0A4.14,4.14,0,0,1,243.46,271.19Z"/><path class="cls-1" d="M157.85,203.63s6.19-26,29.46-25.56,11.26-20.82,23-26,21.18,8.09,27-4.6c7.84-17.25,13.34-15.67,31.85-17.25,0,0-15.41,8.31-16.3,22.08-1.09,17-6.27,20.39-17.72,21.19-14.61,1,4,9.94-11,23.43-13.84,12.4,50.26,64-55.87,70.5-29.54,1.8-23.39-44.41-23.39-44.41Z"/><path class="cls-2" d="M180.84,207.76s-1.38-12.8,16-15.64,14.1-10.9,15.25-23.69,18.31-2.66,26.18-8.08,3.48-11.59,9.5-18.46"/><path class="cls-1" d="M93.75,212.32S49.19,210,59.5,147.45c3.13-19-14.17-13-15.94-23.52s10.51-15.49,1.66-22.57c-12-9.62-9.72-13.74-7.33-28.93,0,0,3.51,14,14.17,17.34,13.17,4.14,14.35,6.25,13.2,18.32S81.69,110,83.38,124.16c2.59,21.74,27.56,13.38,21.89,41.61-4.82,24-18.73,24.47-18.73,24.47Z"/><path class="cls-2" d="M81.59,158.34S71.25,157,72.41,142.51s-5.81-13.43-15.65-16.82,1.49-15.23-1.23-22.61-8.44-5-12.66-11.18"/><path class="cls-3" d="M94.2,265.39h80a6.58,6.58,0,0,0,6.57-6.2L191.55,74.11a6.43,6.43,0,0,0-6.42-6.8H104.8a6.42,6.42,0,0,0-6.41,6L87.62,258.43A6.58,6.58,0,0,0,94.2,265.39Z"/><path class="cls-4" d="M88,265.39h80a6.58,6.58,0,0,0,6.57-6.2L185.3,74.11a6.43,6.43,0,0,0-6.41-6.8H98.55a6.43,6.43,0,0,0-6.41,6L81.37,258.43A6.58,6.58,0,0,0,88,265.39Z"/><path class="cls-2" d="M177.11,106.44l1.73-29.78a3.94,3.94,0,0,0-3.93-4.17H123.54"/><path class="cls-3" d="M154.84,77.64h-31.3a.78.78,0,0,1-.77-.77h0a.78.78,0,0,1,.77-.77h31.3a.78.78,0,0,1,.77.77h0A.78.78,0,0,1,154.84,77.64Z"/><line class="cls-2" x1="118.88" y1="72.49" x2="102.14" y2="72.49"/><circle class="cls-3" cx="128.62" cy="248.38" r="8.56" transform="translate(-151.08 249.59) rotate(-62.87)"/><path class="cls-3" d="M119.28,76.87a.77.77,0,0,1-1.54,0,.77.77,0,0,1,1.54,0Z"/><path class="cls-5" d="M129,106.46a4.92,4.92,0,0,1-1.08,1.07,2.21,2.21,0,0,1-1.27.36,2.56,2.56,0,0,1-1.42-.47l-1.6-1a13.11,13.11,0,0,0-2-1,7.2,7.2,0,0,0-2.7-.46,7,7,0,0,0-2.49.4,5.08,5.08,0,0,0-1.78,1.11,4.74,4.74,0,0,0-1.07,1.67,6.18,6.18,0,0,0-.35,2.11,3.11,3.11,0,0,0,.7,2.07,6.2,6.2,0,0,0,1.85,1.47,19.42,19.42,0,0,0,2.62,1.16c1,.35,2,.73,3,1.15a26.46,26.46,0,0,1,3,1.42,11,11,0,0,1,2.63,2,9.07,9.07,0,0,1,1.86,2.91,10.65,10.65,0,0,1,.7,4.08,17.3,17.3,0,0,1-1.18,6.41,15.42,15.42,0,0,1-3.37,5.24,15.87,15.87,0,0,1-5.34,3.56,18.07,18.07,0,0,1-7.07,1.32,18.66,18.66,0,0,1-3.91-.43,20.37,20.37,0,0,1-3.78-1.23,18.84,18.84,0,0,1-3.36-1.87,13.28,13.28,0,0,1-2.63-2.41l3.59-4.71a3.47,3.47,0,0,1,1.07-.86,2.64,2.64,0,0,1,1.28-.34,2.84,2.84,0,0,1,1.69.6l1.81,1.33a12.63,12.63,0,0,0,2.31,1.33,7.72,7.72,0,0,0,3.23.61,5.89,5.89,0,0,0,4.35-1.54,6.14,6.14,0,0,0,1.53-4.53,3.59,3.59,0,0,0-.7-2.29,5.84,5.84,0,0,0-1.82-1.52,16,16,0,0,0-2.59-1.09c-1-.32-2-.67-3-1a24.45,24.45,0,0,1-3-1.32,9.16,9.16,0,0,1-2.58-2,9.49,9.49,0,0,1-1.83-3,12.12,12.12,0,0,1-.69-4.38A15.18,15.18,0,0,1,108,101.67a15.47,15.47,0,0,1,5.11-3.41A17.26,17.26,0,0,1,119.83,97a17.05,17.05,0,0,1,3.73.41A17.72,17.72,0,0,1,127,98.51a15.68,15.68,0,0,1,2.88,1.69,11.34,11.34,0,0,1,2.19,2.12Z"/><path class="cls-5" d="M170.36,142.51h-7.79a2.85,2.85,0,0,1-3-2.19l-1.39-8.11H142.82l-3.34,8.11a4.43,4.43,0,0,1-1.38,1.51,3.51,3.51,0,0,1-2.15.68H128l21.54-45.08H159.9ZM157,125.34l-2.19-12.87c-.17-.81-.35-1.76-.54-2.87s-.39-2.29-.58-3.57q-.74,1.95-1.47,3.6c-.48,1.11-.9,2.07-1.25,2.9l-5.29,12.81Z"/><path class="cls-5" d="M127.48,194.21l-1,8H101.23l5.57-45.08h10.09l-4.58,37Z"/><path class="cls-5" d="M146.29,164.94,145,175.83h12.75l-1,7.49H144l-1.39,11.17h16.8l-1,7.76H131.53l5.57-45.08H164l-1,7.77Z"/><path class="cls-2" d="M90.48,233.12h73.6a6,6,0,0,0,6-5.7l4.44-70.48"/><path class="cls-6" d="M70,213.79h0a4.65,4.65,0,0,1,4.63,4.64v14.48A4.65,4.65,0,0,1,70,237.55h0a4.65,4.65,0,0,1-4.63-4.64V218.43A4.65,4.65,0,0,1,70,213.79Z"/><path class="cls-6" d="M74.64,213.79h0a4.66,4.66,0,0,1,4.64,4.64v14.48a4.66,4.66,0,0,1-4.64,4.64h0A4.65,4.65,0,0,1,70,232.91V218.43A4.65,4.65,0,0,1,74.64,213.79Z"/><polygon class="cls-3" points="55.93 265.39 90.05 265.39 83.28 225.01 61.58 225.01 55.93 265.39"/><polygon class="cls-7" points="54.57 265.39 84.69 265.39 78.64 225.01 59.65 225.01 54.57 265.39"/><path class="cls-5" d="M71.8,237.07a3,3,0,1,1,0-4.24A3,3,0,0,1,71.8,237.07Z"/><polygon class="cls-3" points="184.36 265.39 207.63 265.39 202.04 203.53 187.69 203.53 184.36 265.39"/><line class="cls-6" x1="188.1" y1="209.68" x2="189.08" y2="186.3"/><line class="cls-6" x1="201.7" y1="208.83" x2="200.53" y2="186.08"/><path class="cls-6" d="M213.93,213.93h0a4.74,4.74,0,0,0-4.73,4.73v17.93a4.74,4.74,0,0,0,4.73,4.73h0a4.74,4.74,0,0,0,4.72-4.73V218.66A4.74,4.74,0,0,0,213.93,213.93Z"/><path class="cls-6" d="M211,213.93h0a4.75,4.75,0,0,0-4.73,4.73v17.93a4.75,4.75,0,0,0,4.73,4.73h0a4.75,4.75,0,0,0,4.73-4.73V218.66A4.75,4.75,0,0,0,211,213.93Z"/><polygon class="cls-3" points="198.53 265.39 233.33 265.39 227.25 230.33 204.21 230.33 198.53 265.39"/><polygon class="cls-4" points="193.46 265.39 229.26 265.39 223.68 230.33 198.1 230.33 193.46 265.39"/><circle class="cls-5" cx="211.19" cy="248.36" r="4.06"/><path class="cls-3" d="M181.29,49.11,162.86,85.32l34.57,59h3.44l55.59-34.56-34.57-59Zm3.35,6a2,2,0,1,1-.7,2.69A2,2,0,0,1,184.64,55.11Z"/><path class="cls-7" d="M184.73,49.11,166.3,85.32l34.57,59,59-34.56-34.57-59Zm3.35,6a2,2,0,1,1-.7,2.69A2,2,0,0,1,188.08,55.11Z"/><polygon class="cls-2" points="203.73 115.6 199.23 118.35 211.2 72.55 215.61 70.14 203.73 115.6"/><path class="cls-2" d="M194.9,82.07a8.24,8.24,0,1,1-3.13-.49"/><path class="cls-2" d="M193.56,92.36a2.94,2.94,0,1,1,1.05-4A2.94,2.94,0,0,1,193.56,92.36Z"/><path class="cls-2" d="M230.15,93.75a8.25,8.25,0,1,1-11.29-3A8.24,8.24,0,0,1,230.15,93.75Z"/><path class="cls-2" d="M224.51,100.45a2.94,2.94,0,1,1,1.05-4A2.93,2.93,0,0,1,224.51,100.45Z"/><path class="cls-6" d="M178.61,54.66c-5.24-3.53-11.86-11.23-17.6-21C152.05,18.32,148.6,3.7,153.29,1S169,8.37,178,23.66s14.08,30.51,11.08,33.64"/><path class="cls-7" d="M79.05,137l-38.11-3L2,185.29l49.24,38.9h2l38.91-51.28Zm-4,5.07a1.85,1.85,0,1,1-2.59.35A1.84,1.84,0,0,1,75,142.1Z"/><path class="cls-3" d="M77,137l-38.11-3L0,185.29l51.27,38.9,38.91-51.28Zm-4,5.07a1.84,1.84,0,0,1,.36,2.59A1.86,1.86,0,1,1,73,142.1Z"/><rect class="cls-2" x="34.51" y="165.15" width="27.39" height="27.39" transform="translate(117.91 7.23) rotate(37.19)"/><path class="cls-2" d="M57,167s6.91-15,.09-14.74C52,152.39,57,167,57,167Z"/><path class="cls-2" d="M57.37,167.26s9.78-6.1,10.3-.92C68,169.84,57.37,167.26,57.37,167.26Z"/><rect class="cls-8" x="45.12" y="165.15" width="6.18" height="27.39" transform="translate(117.92 7.24) rotate(37.19)"/><line class="cls-2" x1="55.35" y1="177.87" x2="67.4" y2="176.22"/><line class="cls-2" x1="29.01" y1="181.48" x2="41.22" y2="179.81"/><line class="cls-2" x1="49.92" y1="181.81" x2="64.69" y2="179.78"/><line class="cls-2" x1="32.63" y1="184.18" x2="38.67" y2="183.35"/><line class="cls-2" x1="47.12" y1="185.39" x2="61.94" y2="183.35"/><line class="cls-2" x1="44.69" y1="188.91" x2="56.08" y2="187.35"/><line class="cls-2" x1="43.27" y1="192.3" x2="56.58" y2="190.48"/><line class="cls-2" x1="46.86" y1="195" x2="53.83" y2="194.05"/><line class="cls-2" x1="42.49" y1="163.72" x2="49.63" y2="162.74"/><line class="cls-2" x1="39.79" y1="167.29" x2="53.2" y2="165.45"/><line class="cls-2" x1="37.08" y1="170.85" x2="48.65" y2="169.26"/><line class="cls-2" x1="34.38" y1="174.41" x2="49" y2="172.41"/><line class="cls-2" x1="55.28" y1="174.74" x2="63.83" y2="173.57"/><line class="cls-2" x1="31.67" y1="177.98" x2="46.54" y2="175.94"/><path class="cls-6" d="M75.64,135.54A56,56,0,0,1,83.45,122c7.3-9.62,19.93-20.26,22.84-18.05s-5,16.43-12.3,26.05-15.59,15.64-18.5,13.43"/><rect class="cls-4" x="45.09" y="253.98" width="27.15" height="11.42"/><rect class="cls-3" x="42.05" y="252.37" width="32.59" height="4.26"/><line class="cls-6" x1="62.88" y1="265.27" x2="62.88" y2="254.1"/><path class="cls-6" d="M59.28,252.37s-10.77-.86-12.06-7.47S54.83,237.3,59.28,252.37Z"/><path class="cls-6" d="M59.28,252.68s7.69-.61,8.62-5.33S62.46,241.91,59.28,252.68Z"/></g></g></svg>