<svg xmlns="http://www.w3.org/2000/svg" viewBox="0 0 333.82 415.72"><defs><style>.cls-1{isolation:isolate;}.cls-2{fill:#fd0047;}.cls-20,.cls-25,.cls-27,.cls-3,.cls-5{opacity:0.3;}.cls-25,.cls-26,.cls-3,.cls-31{mix-blend-mode:multiply;}.cls-20,.cls-25,.cls-4{fill:#505285;}.cls-29,.cls-5{fill:#abb4ff;}.cls-15,.cls-24,.cls-6{fill:#fff;}.cls-7{fill:#806223;}.cls-8{fill:#ffa4d3;}.cls-9{fill:#ff8ac7;}.cls-10{fill:#4d3b15;}.cls-11,.cls-16,.cls-18,.cls-19,.cls-22,.cls-32,.cls-33{fill:none;stroke-miterlimit:10;}.cls-11{stroke:#4d3b15;stroke-width:0.68px;}.cls-11,.cls-16,.cls-18,.cls-19{stroke-linecap:round;}.cls-12{fill:#b88d33;}.cls-13{fill:#856625;}.cls-14{fill:#fdbd47;}.cls-15{opacity:0.5;}.cls-16{stroke:#b88d33;stroke-width:3.2px;}.cls-17{fill:#dce0ff;}.cls-18,.cls-19,.cls-22,.cls-32,.cls-33{stroke:#fff;}.cls-18{stroke-width:1.93px;}.cls-19{stroke-width:1.04px;}.cls-21{fill:#fdef47;}.cls-22{stroke-width:1.13px;}.cls-23{fill:#d88d33;}.cls-24{opacity:0.35;}.cls-26{opacity:0.2;}.cls-28{fill:#c2c9ff;}.cls-30{fill:#929dff;}.cls-31{fill:#ecedff;}.cls-32{stroke-width:1.28px;}.cls-33{stroke-width:0.82px;}</style></defs><title>delivery</title><g class="cls-1"><g id="Layer_2" data-name="Layer 2"><g id="OBJECTS"><path class="cls-2" d="M102.78,204.08c-13.51-3-14.81-22.32-5.23-39.9,5.07-9.21,9.11-20.32,16.7-26.16,6.09-4.7,17.43-3,25.61-3,10.39,0,18-2.16,25.59,1.64s11.8,10.23,16.59,19c7.4,13.77,9.52,41.57-.21,46.6-14.19,7.32-28.1.42-42.91,2.79Z"/><g class="cls-3"><path class="cls-4" d="M103.65,191.71c-2.26-2.36-2.54-7.42-1-10.48,1-2.13,4.26-5.78,5.48-3.77,1.51,2.82,1.2,13.07-1.06,15.78Zm74,0c2.26-2.36,2.54-7.42,1-10.48-1-2.13-4.26-5.78-5.48-3.77-1.51,2.82-1.2,13.07,1.06,15.78Z"/></g><ellipse class="cls-5" cx="142.55" cy="371.58" rx="72.56" ry="10.67"/><rect class="cls-6" x="121.36" y="359.59" width="7.16" height="5.48"/><path class="cls-7" d="M120.81,364.05c-1,1.4-2.29,1.28-5.72,3.25-1,.54-2.8,1.2-3.55,2.21-1.29,1.72-.87,4,1.91,5.15,3.86,1.58,4.85.66,10.25.66,2.35,0,7.73-2.33,7.59-5-.16-3.28-1.2-3.62-1.86-6.24Z"/><g class="cls-3"><path class="cls-4" d="M124.71,373.31c-5.41,0-6.4.93-10.26-.65-2-.8-2.73-2.18-2.57-3.53a2.38,2.38,0,0,0-.34.38c-1.29,1.72-.87,4,1.91,5.15,3.86,1.58,4.85.66,10.25.66,2.31,0,7.53-2.25,7.58-4.89A11.28,11.28,0,0,1,124.71,373.31Z"/></g><rect class="cls-6" x="156.16" y="357.54" width="7.16" height="5.48"/><path class="cls-7" d="M163.87,363c1,1.39,4.34,3.32,7.77,5.29,1,.54,2.8,1.2,3.55,2.21,1.29,1.73.87,4-1.91,5.15-3.86,1.58-4.85.66-10.25.66-2.35,0-9.78-4.38-9.65-7.08.17-3.27,1.21-3.62,1.87-6.23Z"/><g class="cls-3"><path class="cls-4" d="M175.19,370.51a2.38,2.38,0,0,0-.34-.38c.16,1.35-.6,2.73-2.57,3.53-3.86,1.58-4.86.65-10.25.65-1.8,0-6.54-2.55-8.63-5,.07,2.72,7.31,7,9.63,7,5.4,0,6.39.92,10.25-.66C176.06,374.53,176.48,372.24,175.19,370.51Z"/></g><path class="cls-4" d="M116.7,230.16c-3.82,28.8,0,32.3.75,65.07,0,9.56-.2,55.76,2,65.32,1.49.68,9.88.68,11.37,0,1.55-14.33,4.45-48.25,2.21-65.32.68-17.14,3.79-31,5-45.27,1.49,0,5.75-.69,7.24,0,.37,15.57,2.35,28.89,4.1,45.27,1.9,17.86,1.16,49.65,5.44,65.32h9.52c2.38-16.2.38-48.93.38-65.32.75-21.84,4.6-51.15-.16-66.12Z"/><path class="cls-2" d="M114.34,204.72c-1.11,3.59-1.13,22.36,1.66,25.44,3.36,3.58,9.21,3.63,14.24,3.12,11.73-1,31.74.64,34.89-1.88s3.76-30.07-3.51-36.21Z"/><path class="cls-8" d="M119,95.88c0-20.2,9.66-25.77,21.57-25.77s21.57,5.57,21.57,25.77c0,12.33-9.65,29.17-21.57,29.17S119,109.44,119,95.88Z"/><path class="cls-8" d="M147.66,134.87a9.73,9.73,0,0,1-14.24,0l2.05-17.94h10.15Z"/><path class="cls-8" d="M167.28,97c-.66,3.71-2.13,6.55-4.48,6.13s-4.72-3.93-4.07-7.64,3.1-6.37,5.46-6S167.93,93.28,167.28,97Z"/><path class="cls-8" d="M113.81,97c.65,3.71,2.12,6.55,4.48,6.13s4.72-3.93,4.06-7.64-3.09-6.37-5.45-6S113.16,93.28,113.81,97Z"/><path class="cls-9" d="M164.9,96.72c-.39,2.22-1.27,3.93-2.68,3.68s-.37-2.36,0-4.58-.6-3.82.81-3.57S165.29,94.5,164.9,96.72Z"/><path class="cls-9" d="M116.18,96.72c.4,2.22,1.28,3.93,2.69,3.68s.37-2.36,0-4.58.61-3.82-.8-3.57S115.79,94.5,116.18,96.72Z"/><path class="cls-9" d="M143.08,95.88a2.54,2.54,0,1,1-2.54-2.65A2.6,2.6,0,0,1,143.08,95.88Z"/><path class="cls-10" d="M133.78,91.47c0,1.46-.71,2.65-1.59,2.65s-1.58-1.19-1.58-2.65.71-2.66,1.58-2.66S133.78,90,133.78,91.47Z"/><path class="cls-10" d="M150.72,91.47c0,1.46-.71,2.65-1.59,2.65s-1.58-1.19-1.58-2.65.71-2.66,1.58-2.66S150.72,90,150.72,91.47Z"/><path class="cls-11" d="M127.73,91.24a5.07,5.07,0,0,1,5.06-5.06"/><path class="cls-11" d="M153.6,91.24a5.07,5.07,0,0,0-5.06-5.06"/><path class="cls-10" d="M120.55,79.78c-2.18,5.11-1.21,13.69-.27,17,1.15-5,2-7.54,4.6-10.23,0,.4.44,2.34.44,2.88,4.7-13.4,26.88-9.94,30.36-6.87,2.94,2.61,4,7.67,5.49,12.73,3-5.82-1-20.64-6.94-21l-25.5.45Z"/><path class="cls-12" d="M143.39,63.07a2.9,2.9,0,1,0-2.85,2.35A2.63,2.63,0,0,0,143.39,63.07Z"/><path class="cls-13" d="M140.54,79c10.4,0,19.61,2.85,25.33,7.23l-6.41-.44s-5.14-3.46-18.92-3.46-18.69,3.42-18.69,3.42l-6.64.48C120.93,81.81,130.15,79,140.54,79Z"/><path class="cls-14" d="M140.54,78a47.11,47.11,0,0,0-21.13,4.61,19.87,19.87,0,0,0,.9-5.38c0-10,9.06-14.16,20.23-14.16s20.23,4.21,20.23,14.16a19.88,19.88,0,0,0,.91,5.38A47.16,47.16,0,0,0,140.54,78Z"/><path class="cls-15" d="M128.74,79.3a5.57,5.57,0,0,1-.13-1.16c0-5.82,9.24-10.55,20.63-10.55a38.06,38.06,0,0,1,8.14.86,12.09,12.09,0,0,1,3.39,8.78,19.88,19.88,0,0,0,.91,5.38A47.16,47.16,0,0,0,140.54,78,53.39,53.39,0,0,0,128.74,79.3Z"/><path class="cls-16" d="M115.21,85.23c5.72-4.39,14.94-7.23,25.33-7.23s19.61,2.84,25.33,7.23"/><path class="cls-17" d="M118.63,105.31a20.9,20.9,0,0,1,1.28-5.16l20.63-4.27,20.26,3.54s1.66,3.85,1.66,5.89a21.92,21.92,0,1,1-43.83,0Z"/><line class="cls-18" x1="121.43" y1="103.76" x2="138.61" y2="103.76"/><line class="cls-18" x1="121.43" y1="108.15" x2="138.61" y2="108.15"/><line class="cls-18" x1="122.34" y1="112.53" x2="138.61" y2="112.53"/><line class="cls-18" x1="125.08" y1="116.91" x2="138.61" y2="116.91"/><line class="cls-18" x1="128.73" y1="121.3" x2="138.61" y2="121.3"/><line class="cls-18" x1="142.48" y1="103.76" x2="159.66" y2="103.76"/><line class="cls-18" x1="142.48" y1="108.15" x2="159.66" y2="108.15"/><line class="cls-18" x1="142.48" y1="112.53" x2="158.74" y2="112.53"/><line class="cls-18" x1="142.48" y1="116.91" x2="156.01" y2="116.91"/><line class="cls-18" x1="142.48" y1="121.3" x2="152.36" y2="121.3"/><path class="cls-6" d="M121.63,100.15a1.71,1.71,0,1,0-1.71,1.71A1.72,1.72,0,0,0,121.63,100.15Z"/><path class="cls-6" d="M162.88,100.15a1.71,1.71,0,1,0-1.71,1.71A1.71,1.71,0,0,0,162.88,100.15Z"/><line class="cls-19" x1="119.92" y1="100.15" x2="118.87" y2="89.47"/><line class="cls-19" x1="161.35" y1="100.15" x2="162.4" y2="89.47"/><path class="cls-20" d="M142.55,125.23a21.92,21.92,0,0,1-21.92-21.92,13.64,13.64,0,0,1,.7-3.45l-1.42.29a20.9,20.9,0,0,0-1.28,5.16A21.91,21.91,0,0,0,157,119.78,21.8,21.8,0,0,1,142.55,125.23Z"/><g class="cls-3"><path class="cls-4" d="M112.55,143.09c3.34-5.7,19.16-2.82,28.32-2.51,5.8,0,19.34-2.8,24.54-.05,16.18,8.85-26.68,14.32-30,14.93C135.37,155.46,103.37,158.81,112.55,143.09Z"/></g><rect class="cls-14" x="104.45" y="148.56" width="72.19" height="67.5"/><polygon class="cls-21" points="164.99 141.52 116.1 141.52 104.45 148.56 176.64 148.56 164.99 141.52"/><polyline class="cls-22" points="128.86 171.52 133.5 166.88 138.14 171.52"/><line class="cls-22" x1="133.5" y1="166.88" x2="133.5" y2="181.43"/><polyline class="cls-22" points="142.95 171.52 147.59 166.88 152.23 171.52"/><line class="cls-22" x1="147.59" y1="166.88" x2="147.59" y2="181.43"/><line class="cls-22" x1="129.55" y1="185.47" x2="151.54" y2="185.47"/><rect class="cls-6" x="122.13" y="204.86" width="36.83" height="6.64"/><polygon class="cls-14" points="143.2 141.52 137.89 141.52 131.39 148.56 149.7 148.56 143.2 141.52"/><rect class="cls-23" x="131.39" y="148.56" width="18.31" height="6.9"/><path class="cls-24" d="M176.64,206.55s-.37-46.35-6-52-56.69-6-56.69-6h62.69Z"/><path class="cls-25" d="M104.45,158.07s.57,46.55,6,52,56.69,6,56.69,6H104.45Z"/><path class="cls-17" d="M178.08,192.2c-3.47-.07-12.79-.54-12.67,1.88.14,3,6.54,2.7,8.21,3-3.18,0-8.57-.85-8.92,1.5s7.05,2.56,8.72,2.84c-1.95,0-9.37-.79-9.09,2.55.28,2.79,7.62,2,9.57,2.31-10.2.25-5.8,4.29,4,3C183.92,208.48,184.07,192.32,178.08,192.2Z"/><g class="cls-26"><g class="cls-3"><path class="cls-4" d="M167,200.42a1,1,0,0,1-.31-.86c.35-2.35,4.11-1.62,2.1-2.65-2.1,0-3.9.33-4.1,1.65C164.56,199.44,165.6,200,167,200.42Z"/></g><g class="cls-3"><path class="cls-4" d="M168,196.37a1.85,1.85,0,0,1-.6-1.29c-.12-2.42,9.2-2,12.67-1.88a2.23,2.23,0,0,1,.27,0,3.21,3.21,0,0,0-2.27-1c-3.47-.07-12.79-.54-12.67,1.88C165.47,195.31,166.59,196,168,196.37Z"/></g><g class="cls-3"><path class="cls-4" d="M166.33,205c-.28-3.34,4.7-2.91,2.47-3.59-2.37.14-4.63.72-4.47,2.59.09,1,1.07,1.52,2.36,1.82A1.5,1.5,0,0,1,166.33,205Z"/></g><g class="cls-3"><path class="cls-4" d="M169.2,206.88c-1.89.65-1.28,1.65,1,2.22C168.54,208,170.39,207.77,169.2,206.88Z"/></g></g><g class="cls-3"><path class="cls-4" d="M165.13,231.4c-3.15,2.52-23.16.85-34.89,1.88-4.73.48-10.19.46-13.61-2.52-.19,1.43-.36,2.81-.51,4.13a24.05,24.05,0,0,0,8.46,1.64c4.54-.2,9.68-.2,14.22-.59,5.72-.4,11.64-.4,17.37-.59a75.94,75.94,0,0,0,9.81-.16c-.22-1.36-.47-2.65-.77-3.87Z"/></g><g class="cls-3"><path class="cls-4" d="M151.44,283.18c0-7.92.27-15.56-.27-23.2,0-3.28-.3-9.12-2.49-11.85-2.72-3-6.25-.43-10.07-1a5.23,5.23,0,0,0-.54,2.19V250c1.49,0,5.75-.69,7.24,0,.37,15.57,2.35,28.89,4.1,45.27,1.31,12.29,1.37,31.17,2.67,46.86,1.92-4,2.47-10.55,2.08-15.25C152.8,312.93,151.44,297.37,151.44,283.18Z"/></g><path class="cls-17" d="M101,192.2c3.48-.07,12.8-.54,12.68,1.88-.14,3-6.54,2.7-8.22,3,3.19,0,8.58-.85,8.93,1.5s-7,2.56-8.73,2.84c2,0,9.38-.79,9.1,2.55-.28,2.79-7.62,2-9.57,2.31,10.2.25,5.8,4.29-4,3C95.17,208.48,95,192.32,101,192.2Z"/><g class="cls-3"><path class="cls-4" d="M103,193.2c2.4,0,7.57-.29,10.52.36-1.18-1.83-9.32-1.42-12.52-1.36-6,.12-5.83,16.22.16,17.06C97.23,205.58,97.79,193.3,103,193.2Z"/></g><g class="cls-27"><polygon class="cls-28" points="50.66 36.91 50.66 376.31 61.54 376.31 61.54 49.46 217.09 49.46 217.09 376.31 227.97 376.31 227.97 36.91 50.66 36.91"/><path class="cls-29" d="M325.67,413.21,228,375.8V37.41L325.67,0Z"/><path class="cls-17" d="M245.85,131l61.94-10.19V78.13c0-23-13.87-37-31-31.21s-31,26.63-31,46.47Z"/><path class="cls-17" d="M245.85,159.05v85.37l61.94,5.09V152.64Z"/><path class="cls-17" d="M245.85,272.48v85.37l61.94,20.37V281.35Z"/><path class="cls-17" d="M310.09,208.26c0-6,2.87-10.92,6.42-11s6.41,4.86,6.41,11-2.87,11.09-6.41,11S310.09,214.26,310.09,208.26Z"/><polygon class="cls-30" points="325.67 413.21 333.82 412.34 333.82 1.14 325.67 0 325.67 413.21"/><polygon class="cls-31" points="61.54 202.5 61.54 49.46 217.09 49.46 76.17 64.08 61.54 202.5"/><polygon class="cls-6" points="55.53 43.73 55.53 376.31 61.54 376.31 61.54 49.46 217.09 49.46 217.09 376.31 223.1 376.31 223.1 43.73 55.53 43.73"/></g><path class="cls-5" d="M0,402.89c0-7.09,28.37-12.83,63.36-12.83s63.37,5.74,63.37,12.83-28.38,12.83-63.37,12.83S0,410,0,402.89Z"/><rect class="cls-14" x="21.45" y="328.61" width="81.85" height="76.52"/><polygon class="cls-21" points="90.09 320.62 34.66 320.62 21.45 328.61 103.3 328.61 90.09 320.62"/><polyline class="cls-32" points="49.13 354.64 54.39 349.38 59.64 354.64"/><line class="cls-32" x1="54.39" y1="349.38" x2="54.39" y2="365.87"/><polyline class="cls-32" points="65.1 354.64 70.36 349.38 75.62 354.64"/><line class="cls-32" x1="70.36" y1="349.38" x2="70.36" y2="365.87"/><line class="cls-32" x1="49.91" y1="370.45" x2="74.83" y2="370.45"/><rect class="cls-6" x="41.49" y="392.44" width="41.76" height="7.53"/><polygon class="cls-14" points="65.38 320.62 59.36 320.62 51.99 328.61 72.75 328.61 65.38 320.62"/><rect class="cls-23" x="52" y="328.61" width="20.75" height="7.82"/><path class="cls-24" d="M103.3,394.35s-.42-52.55-6.81-58.94-64.26-6.8-64.26-6.8H103.3Z"/><path class="cls-25" d="M21.45,339.39s.65,52.78,6.81,58.93,64.26,6.81,64.26,6.81H21.45Z"/><rect class="cls-14" x="35.88" y="274.31" width="52.09" height="48.7"/><polygon class="cls-21" points="79.56 269.23 44.29 269.23 35.88 274.31 87.97 274.31 79.56 269.23"/><polyline class="cls-33" points="53.49 290.88 56.84 287.53 60.18 290.88"/><line class="cls-33" x1="56.84" y1="287.53" x2="56.84" y2="298.03"/><polyline class="cls-33" points="63.66 290.88 67 287.53 70.35 290.88"/><line class="cls-33" x1="67.01" y1="287.53" x2="67.01" y2="298.03"/><line class="cls-33" x1="53.99" y1="300.94" x2="69.85" y2="300.94"/><rect class="cls-6" x="48.63" y="314.93" width="26.57" height="4.79"/><polygon class="cls-14" points="63.84 269.23 60.01 269.23 55.32 274.31 68.53 274.31 63.84 269.23"/><rect class="cls-23" x="55.32" y="274.31" width="13.21" height="4.98"/><path class="cls-24" d="M88,316.15s-.27-33.44-4.34-37.51-40.89-4.33-40.89-4.33H88Z"/><path class="cls-25" d="M35.88,281.17s.41,33.59,4.33,37.51S81.11,323,81.11,323H35.88Z"/><path class="cls-5" d="M147,402.89c0-7.09,28.37-12.83,63.37-12.83s63.36,5.74,63.36,12.83-28.37,12.83-63.36,12.83S147,410,147,402.89Z"/><rect class="cls-14" x="168.45" y="328.61" width="81.85" height="76.52"/><polygon class="cls-21" points="237.09 320.62 181.66 320.62 168.45 328.61 250.3 328.61 237.09 320.62"/><polyline class="cls-32" points="196.13 354.64 201.39 349.38 206.65 354.64"/><line class="cls-32" x1="201.39" y1="349.38" x2="201.39" y2="365.87"/><polyline class="cls-32" points="212.11 354.64 217.37 349.38 222.63 354.64"/><line class="cls-32" x1="217.37" y1="349.38" x2="217.37" y2="365.87"/><line class="cls-32" x1="196.92" y1="370.45" x2="221.84" y2="370.45"/><rect class="cls-6" x="188.5" y="392.44" width="41.76" height="7.53"/><polygon class="cls-14" points="212.39 320.62 206.37 320.62 199 328.61 219.75 328.61 212.39 320.62"/><rect class="cls-23" x="199" y="328.61" width="20.75" height="7.82"/><path class="cls-24" d="M250.3,394.35s-.42-52.55-6.81-58.94-64.26-6.8-64.26-6.8H250.3Z"/><path class="cls-25" d="M168.45,339.39s.66,52.78,6.81,58.93,64.26,6.81,64.26,6.81H168.45Z"/><rect class="cls-14" x="182.89" y="274.31" width="52.09" height="48.7"/><polygon class="cls-21" points="226.56 269.23 191.29 269.23 182.89 274.31 234.97 274.31 226.56 269.23"/><polyline class="cls-33" points="200.5 290.88 203.84 287.53 207.19 290.88"/><line class="cls-33" x1="203.84" y1="287.53" x2="203.84" y2="298.03"/><polyline class="cls-33" points="210.66 290.88 214.01 287.53 217.36 290.88"/><line class="cls-33" x1="214.01" y1="287.53" x2="214.01" y2="298.03"/><line class="cls-33" x1="201" y1="300.94" x2="216.86" y2="300.94"/><rect class="cls-6" x="195.64" y="314.93" width="26.57" height="4.79"/><polygon class="cls-14" points="210.84 269.23 207.01 269.23 202.32 274.31 215.53 274.31 210.84 269.23"/><rect class="cls-23" x="202.32" y="274.31" width="13.21" height="4.98"/><path class="cls-24" d="M235,316.15s-.27-33.44-4.33-37.51-40.9-4.33-40.9-4.33H235Z"/><path class="cls-25" d="M182.89,281.17s.41,33.59,4.33,37.51S228.11,323,228.11,323H182.89Z"/></g></g></g></svg>