<svg xmlns="http://www.w3.org/2000/svg" xmlns:xlink="http://www.w3.org/1999/xlink" viewBox="0 0 796.74 820.08"><defs><style>.cls-1{fill:url(#linear-gradient);}.cls-2{fill:url(#linear-gradient-2);}.cls-3,.cls-5{opacity:0.2;}.cls-3{fill:url(#linear-gradient-3);}.cls-10,.cls-4,.cls-8,.cls-9{opacity:0.4;}.cls-4{fill:url(#linear-gradient-4);}.cls-5{fill:url(#linear-gradient-5);}.cls-6{fill:url(#linear-gradient-6);}.cls-7{fill:url(#linear-gradient-7);}.cls-8{fill:url(#linear-gradient-8);}.cls-9{fill:url(#linear-gradient-9);}.cls-10{fill:url(#linear-gradient-10);}.cls-11{fill:#120034;}.cls-12{fill:url(#linear-gradient-11);}.cls-13{fill:#000769;}.cls-14,.cls-21,.cls-35,.cls-40{fill:none;stroke-miterlimit:10;}.cls-14,.cls-40{stroke:#fff;}.cls-14,.cls-35,.cls-40{stroke-linecap:round;}.cls-14{stroke-width:2.85px;}.cls-15{fill:url(#linear-gradient-12);}.cls-16{fill:#c5baeb;}.cls-17{fill:url(#linear-gradient-13);}.cls-18{fill:url(#linear-gradient-14);}.cls-19{fill:#fff;}.cls-20{fill:url(#linear-gradient-15);}.cls-21{stroke:#e300f7;stroke-width:1.79px;}.cls-22{fill:url(#linear-gradient-16);}.cls-23{fill:url(#linear-gradient-17);}.cls-24{fill:url(#linear-gradient-18);}.cls-25{fill:url(#linear-gradient-19);}.cls-26{fill:url(#linear-gradient-20);}.cls-27{fill:url(#linear-gradient-21);}.cls-28{fill:url(#linear-gradient-22);}.cls-29{fill:url(#linear-gradient-23);}.cls-30{fill:url(#linear-gradient-24);}.cls-31{fill:url(#linear-gradient-25);}.cls-32{fill:url(#linear-gradient-26);}.cls-33{fill:url(#linear-gradient-27);}.cls-34{fill:url(#linear-gradient-28);}.cls-35{stroke:#c5baeb;}.cls-35,.cls-40{stroke-width:6.57px;}.cls-36{fill:url(#linear-gradient-29);}.cls-37{fill:#8b451c;}.cls-38{fill:url(#linear-gradient-30);}.cls-39{fill:url(#linear-gradient-31);}.cls-41{fill:url(#linear-gradient-32);}.cls-42{fill:url(#linear-gradient-33);}.cls-43{fill:url(#linear-gradient-34);}.cls-44{fill:url(#linear-gradient-35);}.cls-45{fill:url(#linear-gradient-36);}.cls-46{fill:url(#linear-gradient-37);}.cls-47{fill:url(#linear-gradient-38);}.cls-48{fill:url(#linear-gradient-39);}.cls-49{fill:url(#linear-gradient-40);}.cls-50{fill:url(#linear-gradient-41);}.cls-51{fill:url(#linear-gradient-42);}.cls-52{fill:url(#linear-gradient-43);}.cls-53{fill:url(#linear-gradient-44);}.cls-54{fill:url(#linear-gradient-45);}.cls-55{fill:url(#linear-gradient-46);}.cls-56{fill:url(#linear-gradient-47);}.cls-57{fill:url(#linear-gradient-48);}.cls-58{fill:url(#linear-gradient-49);}.cls-59{fill:url(#linear-gradient-50);}.cls-60{fill:url(#linear-gradient-51);}.cls-61{fill:url(#linear-gradient-52);}.cls-62{fill:url(#linear-gradient-53);}.cls-63{fill:url(#linear-gradient-54);}.cls-64{fill:url(#linear-gradient-55);}.cls-65{fill:url(#linear-gradient-56);}.cls-66{fill:url(#linear-gradient-57);}.cls-67{fill:url(#linear-gradient-58);}.cls-68{fill:url(#linear-gradient-59);}.cls-69{fill:url(#linear-gradient-60);}.cls-70{fill:url(#linear-gradient-61);}.cls-71{fill:url(#linear-gradient-62);}.cls-72{fill:url(#linear-gradient-63);}.cls-73{fill:url(#linear-gradient-64);}.cls-74{fill:url(#linear-gradient-65);}.cls-75{fill:url(#linear-gradient-66);}.cls-76{fill:url(#linear-gradient-67);}.cls-77{fill:url(#linear-gradient-68);}.cls-78{fill:url(#linear-gradient-69);}.cls-79{fill:url(#linear-gradient-70);}</style><linearGradient id="linear-gradient" x1="392.92" y1="1111.39" x2="392.92" y2="160.41" gradientUnits="userSpaceOnUse"><stop offset="0" stop-color="#e300f7"/><stop offset="1" stop-color="#e300f7" stop-opacity="0"/></linearGradient><linearGradient id="linear-gradient-2" x1="27.58" y1="249.68" x2="27.58" y2="112.61" xlink:href="#linear-gradient"/><linearGradient id="linear-gradient-3" x1="5.85" y1="477.72" x2="5.85" y2="406.9" xlink:href="#linear-gradient"/><linearGradient id="linear-gradient-4" x1="200.08" y1="168.8" x2="200.08" y2="31.74" xlink:href="#linear-gradient"/><linearGradient id="linear-gradient-5" x1="684.32" y1="628.09" x2="684.32" y2="491.02" xlink:href="#linear-gradient"/><linearGradient id="linear-gradient-6" x1="87.62" y1="330.76" x2="87.62" y2="191.27" xlink:href="#linear-gradient"/><linearGradient id="linear-gradient-7" x1="681.4" y1="339.82" x2="681.4" y2="200.33" xlink:href="#linear-gradient"/><linearGradient id="linear-gradient-8" x1="579.89" y1="170.02" x2="579.89" y2="30.52" xlink:href="#linear-gradient"/><linearGradient id="linear-gradient-9" x1="87.62" y1="634.26" x2="87.62" y2="494.77" xlink:href="#linear-gradient"/><linearGradient id="linear-gradient-10" x1="745.51" y1="168.8" x2="745.51" y2="31.74" xlink:href="#linear-gradient"/><linearGradient id="linear-gradient-11" x1="597.04" y1="945.56" x2="597.04" y2="884.35" gradientTransform="translate(293.15 -750.75) rotate(41.24)" gradientUnits="userSpaceOnUse"><stop offset="0" stop-color="#e37a34"/><stop offset="1" stop-color="#ffc538"/></linearGradient><linearGradient id="linear-gradient-12" x1="490.46" y1="-22.23" x2="490.46" y2="-83.45" gradientTransform="translate(243.11 698.47) rotate(-23.54)" gradientUnits="userSpaceOnUse"><stop offset="0" stop-color="#d7d1eb"/><stop offset="1" stop-color="#e9e5f6"/></linearGradient><linearGradient id="linear-gradient-13" x1="441.91" y1="638.3" x2="441.91" y2="412.62" gradientUnits="userSpaceOnUse"><stop offset="0" stop-color="#a996eb"/><stop offset="1" stop-color="#d7d1eb"/></linearGradient><linearGradient id="linear-gradient-14" x1="213.98" y1="420.02" x2="213.98" y2="378.49" gradientUnits="userSpaceOnUse"><stop offset="0" stop-color="#4c009e"/><stop offset="1" stop-color="#e300f7"/></linearGradient><linearGradient id="linear-gradient-15" x1="2236.94" y1="-129.93" x2="2236.94" y2="-239.58" gradientTransform="matrix(-0.9, 0.44, 0.44, 0.9, 2298.64, -535.41)" xlink:href="#linear-gradient-11"/><linearGradient id="linear-gradient-16" x1="286.11" y1="442.45" x2="286.11" y2="654.99" xlink:href="#linear-gradient-13"/><linearGradient id="linear-gradient-17" x1="325.56" y1="442.45" x2="325.56" y2="654.99" xlink:href="#linear-gradient-13"/><linearGradient id="linear-gradient-18" x1="462.69" y1="754.22" x2="462.69" y2="435.45" xlink:href="#linear-gradient-14"/><linearGradient id="linear-gradient-19" x1="383.3" y1="571.52" x2="383.3" y2="257.5" xlink:href="#linear-gradient-14"/><linearGradient id="linear-gradient-20" x1="383.07" y1="382.21" x2="383.07" y2="341.01" gradientUnits="userSpaceOnUse"><stop offset="0" stop-color="#fff"/><stop offset="1" stop-color="#fff" stop-opacity="0"/></linearGradient><linearGradient id="linear-gradient-21" x1="457.22" y1="388.35" x2="457.22" y2="307.04" gradientTransform="matrix(1, 0, 0, 1, 0, 0)" xlink:href="#linear-gradient-11"/><linearGradient id="linear-gradient-22" x1="395.31" y1="341.75" x2="395.31" y2="218.8" gradientTransform="matrix(1, 0, 0, 1, 0, 0)" xlink:href="#linear-gradient-11"/><linearGradient id="linear-gradient-23" x1="459.09" y1="300.4" x2="459.09" y2="272.56" xlink:href="#linear-gradient-14"/><linearGradient id="linear-gradient-24" x1="392.92" y1="284.44" x2="392.92" y2="244.85" xlink:href="#linear-gradient-14"/><linearGradient id="linear-gradient-25" x1="496.22" y1="689.85" x2="496.22" y2="496.07" gradientUnits="userSpaceOnUse"><stop offset="0" stop-color="#4c009e"/><stop offset="1" stop-color="#ffc538"/></linearGradient><linearGradient id="linear-gradient-26" x1="434.31" y1="578.79" x2="434.31" y2="285.77" xlink:href="#linear-gradient-25"/><linearGradient id="linear-gradient-27" x1="498.08" y1="460.09" x2="498.08" y2="432.25" xlink:href="#linear-gradient-14"/><linearGradient id="linear-gradient-28" x1="431.92" y1="444.13" x2="431.92" y2="404.54" xlink:href="#linear-gradient-14"/><linearGradient id="linear-gradient-29" x1="330.95" y1="623.86" x2="330.95" y2="463.29" gradientTransform="matrix(1, 0, 0, 1, 0, 0)" xlink:href="#linear-gradient-11"/><linearGradient id="linear-gradient-30" x1="416.93" y1="623.86" x2="416.93" y2="463.29" gradientTransform="matrix(1, 0, 0, 1, 0, 0)" xlink:href="#linear-gradient-11"/><linearGradient id="linear-gradient-31" x1="408.7" y1="547.98" x2="408.7" y2="387.42" gradientTransform="matrix(1, 0, 0, 1, 0, 0)" xlink:href="#linear-gradient-11"/><linearGradient id="linear-gradient-32" x1="669.73" y1="632.6" x2="745.26" y2="469.06" gradientTransform="matrix(0.97, 0.25, -0.25, 0.97, 32.6, -342.13)" xlink:href="#linear-gradient-25"/><linearGradient id="linear-gradient-33" x1="822.21" y1="477.52" x2="691.42" y2="592.45" gradientTransform="matrix(0.97, 0.25, -0.25, 0.97, 32.6, -342.13)" xlink:href="#linear-gradient-20"/><linearGradient id="linear-gradient-34" x1="761.88" y1="494.1" x2="732.3" y2="520.09" gradientTransform="matrix(0.97, 0.25, -0.25, 0.97, 32.6, -342.13)" xlink:href="#linear-gradient-20"/><linearGradient id="linear-gradient-35" x1="365.81" y1="762.46" x2="365.81" y2="845.16" gradientUnits="userSpaceOnUse"><stop offset="0" stop-color="#000435"/><stop offset="1" stop-color="#4c009e"/></linearGradient><linearGradient id="linear-gradient-36" x1="333.76" y1="762.46" x2="333.76" y2="845.16" gradientTransform="translate(177.41 -54.91) rotate(12.78)" xlink:href="#linear-gradient-35"/><linearGradient id="linear-gradient-37" x1="367.02" y1="716.22" x2="367.02" y2="770.7" xlink:href="#linear-gradient-13"/><linearGradient id="linear-gradient-38" x1="333.04" y1="727.54" x2="333.04" y2="825.57" xlink:href="#linear-gradient-13"/><linearGradient id="linear-gradient-39" x1="570.63" y1="762.46" x2="570.63" y2="845.16" xlink:href="#linear-gradient-35"/><linearGradient id="linear-gradient-40" x1="538.58" y1="762.46" x2="538.58" y2="845.16" gradientTransform="translate(698.19 -156.98) rotate(45)" xlink:href="#linear-gradient-35"/><linearGradient id="linear-gradient-41" x1="571.84" y1="716.22" x2="571.84" y2="770.7" xlink:href="#linear-gradient-13"/><linearGradient id="linear-gradient-42" x1="537.86" y1="727.54" x2="537.86" y2="825.57" xlink:href="#linear-gradient-13"/><linearGradient id="linear-gradient-43" x1="237.09" y1="762.46" x2="237.09" y2="845.16" xlink:href="#linear-gradient-35"/><linearGradient id="linear-gradient-44" x1="205.04" y1="756.02" x2="205.04" y2="792.51" gradientTransform="translate(181.08 -26.66) rotate(13.28)" xlink:href="#linear-gradient-35"/><linearGradient id="linear-gradient-45" x1="205.04" y1="758.64" x2="205.04" y2="785.05" gradientTransform="translate(865.01 327.69) rotate(71.53)" xlink:href="#linear-gradient-12"/><linearGradient id="linear-gradient-46" x1="211.32" y1="757.39" x2="211.32" y2="784.5" gradientTransform="translate(808.65 242.75) rotate(64.33)" xlink:href="#linear-gradient-13"/><linearGradient id="linear-gradient-47" x1="238.3" y1="711.2" x2="238.3" y2="742.21" xlink:href="#linear-gradient-13"/><linearGradient id="linear-gradient-48" x1="204.32" y1="757.7" x2="204.32" y2="723.92" gradientTransform="matrix(1, 0, 0, 1, 0, 0)" xlink:href="#linear-gradient-12"/><linearGradient id="linear-gradient-49" x1="441.91" y1="762.46" x2="441.91" y2="845.16" xlink:href="#linear-gradient-35"/><linearGradient id="linear-gradient-50" x1="409.86" y1="756.02" x2="409.86" y2="792.51" gradientTransform="translate(660.49 -65.96) rotate(45)" xlink:href="#linear-gradient-35"/><linearGradient id="linear-gradient-51" x1="409.86" y1="758.64" x2="409.86" y2="785.05" gradientTransform="translate(955.21 89.96) rotate(67.17)" xlink:href="#linear-gradient-12"/><linearGradient id="linear-gradient-52" x1="416.15" y1="757.39" x2="416.15" y2="784.5" gradientTransform="translate(185.46 -74.82) rotate(13.2)" xlink:href="#linear-gradient-13"/><linearGradient id="linear-gradient-53" x1="443.13" y1="711.2" x2="443.13" y2="742.21" xlink:href="#linear-gradient-13"/><linearGradient id="linear-gradient-54" x1="409.14" y1="757.7" x2="409.14" y2="723.92" gradientTransform="matrix(1, 0, 0, 1, 0, 0)" xlink:href="#linear-gradient-12"/><linearGradient id="linear-gradient-55" x1="453.41" y1="598.08" x2="453.41" y2="732.57" xlink:href="#linear-gradient-13"/><linearGradient id="linear-gradient-56" x1="524.78" y1="421.84" x2="524.78" y2="619.4" gradientTransform="matrix(1, 0, 0, 1, 0, 0)" xlink:href="#linear-gradient-12"/><linearGradient id="linear-gradient-57" x1="315.75" y1="717.65" x2="315.75" y2="600" gradientTransform="matrix(1, 0, 0, 1, 0, 0)" xlink:href="#linear-gradient-12"/><linearGradient id="linear-gradient-58" x1="304.75" y1="644.58" x2="304.75" y2="437.93" gradientTransform="matrix(1, 0, 0, 1, 0, 0)" xlink:href="#linear-gradient-12"/><linearGradient id="linear-gradient-59" x1="608.13" y1="-43.66" x2="608.13" y2="-170.57" gradientTransform="translate(-272.05 417.74) rotate(-12.53)" gradientUnits="userSpaceOnUse"><stop offset="0" stop-color="#e9e5f6"/><stop offset="1" stop-color="#fff"/></linearGradient><linearGradient id="linear-gradient-60" x1="608.13" y1="-179.74" x2="608.13" y2="-201.47" gradientTransform="translate(-272.05 417.74) rotate(-12.53)" xlink:href="#linear-gradient-12"/><linearGradient id="linear-gradient-61" x1="3136.96" y1="-158.38" x2="3136.96" y2="-123.63" gradientTransform="matrix(-0.98, 0.22, 0.22, 0.98, 3383.95, -395.09)" xlink:href="#linear-gradient"/><linearGradient id="linear-gradient-62" x1="1158.78" y1="1817.45" x2="1158.78" y2="1728.64" gradientTransform="translate(-95.86 -1816.91) rotate(16.14)" xlink:href="#linear-gradient-14"/><linearGradient id="linear-gradient-63" x1="1134.07" y1="1730.52" x2="1194.11" y2="1730.52" gradientTransform="translate(-95.86 -1816.91) rotate(16.14)" xlink:href="#linear-gradient-14"/><linearGradient id="linear-gradient-64" x1="1204.86" y1="1781.5" x2="1204.86" y2="1760.73" gradientTransform="translate(-95.86 -1816.91) rotate(16.14)" gradientUnits="userSpaceOnUse"><stop offset="0" stop-color="#d7d1eb"/><stop offset="1" stop-color="#fff"/></linearGradient><linearGradient id="linear-gradient-65" x1="1090.44" y1="1782.89" x2="1229.39" y2="1782.89" gradientTransform="translate(-637.32 -1564.67)" xlink:href="#linear-gradient-12"/><linearGradient id="linear-gradient-66" x1="1156.73" y1="1756.93" x2="1151.69" y2="1713.81" xlink:href="#linear-gradient-64"/><linearGradient id="linear-gradient-67" x1="1160.3" y1="1756.52" x2="1155.25" y2="1713.4" xlink:href="#linear-gradient-64"/><linearGradient id="linear-gradient-68" x1="1165.56" y1="1755.9" x2="1160.51" y2="1712.78" xlink:href="#linear-gradient-64"/><linearGradient id="linear-gradient-69" x1="1175.05" y1="1754.79" x2="1170" y2="1711.67" xlink:href="#linear-gradient-64"/><linearGradient id="linear-gradient-70" x1="1120.7" y1="1771.92" x2="1120.7" y2="1745.66" xlink:href="#linear-gradient-64"/></defs><title>hero-2</title><g id="Layer_2" data-name="Layer 2"><g id="OBJECTS"><path class="cls-1" d="M707.71,385.55c-57.24-100.84-22.86-166-69.22-249.95C580.47,30.5,447.91-45.9,298.34,31.76,218.87,73,207.9,138.26,134.3,223.47,62.91,306.11-6.87,470.18,89.86,607.53h0q3.35,4.74,7,9.45h0l0,0,2.48,3.18c.82,1,1.65,2,2.49,3.07.65.79,1.31,1.57,2,2.35l.5.58C219.52,759.84,546.84,754.92,651.8,682.76c22.58-15.52,40.66-33.3,54.61-52.63h0l.41-.59c1-1.42,2-2.84,3-4.28.37-.54.72-1.08,1.08-1.62.76-1.14,1.5-2.29,2.23-3.44l1.15-1.85c.29-.46.59-.91.86-1.37h0c1.76-2.91,3.46-5.83,5-8.79l-1.69-.66h2C756.72,539.43,748.22,456.91,707.71,385.55Z"/><rect class="cls-2" x="21.73" y="112.61" width="11.7" height="137.07"/><rect class="cls-3" y="406.9" width="11.7" height="70.82"/><rect class="cls-4" x="194.23" y="31.74" width="11.7" height="137.07"/><rect class="cls-5" x="678.47" y="491.02" width="11.7" height="137.07"/><rect class="cls-6" x="84.69" y="191.27" width="5.85" height="139.5"/><rect class="cls-7" x="678.47" y="200.33" width="5.85" height="139.5"/><rect class="cls-8" x="576.96" y="30.52" width="5.85" height="139.5"/><rect class="cls-9" x="84.69" y="494.77" width="5.85" height="139.5"/><rect class="cls-10" x="739.66" y="31.74" width="11.7" height="137.07"/><ellipse class="cls-11" cx="403.13" cy="799.73" rx="376.22" ry="20.35"/><path class="cls-12" d="M168.26,321.44l-3.62-14.57a6.08,6.08,0,0,0-5.22-4.57l-14.91-1.69a6.09,6.09,0,0,0-5.26,2l-25.79,29.41a6.09,6.09,0,0,0,.57,8.59l18.53,16.24a6.07,6.07,0,0,0,8.58-.56l25.79-29.42A6.08,6.08,0,0,0,168.26,321.44Zm-12.08-10.18a3.5,3.5,0,1,1,4.94-.32A3.49,3.49,0,0,1,156.18,311.26Z"/><path class="cls-13" d="M130.93,323.79a5.54,5.54,0,0,1,1.64-3.76l5.42-6.19a5.63,5.63,0,0,1,3.51-2.11,5.55,5.55,0,0,1,5.48,4.81,5.57,5.57,0,0,1-1.63,3.75l-5.43,6.19a5.54,5.54,0,0,1-3.51,2.11,5.56,5.56,0,0,1-5.48-4.8Zm6.41.74,5.73-6.54c.91-1,1-1.93.12-2.66s-1.71-.57-2.62.47l-5.73,6.54c-.91,1-1,1.92-.12,2.65S136.43,325.56,137.34,324.53Zm16.3-3.34,2.43,2.13L125,339.82l-2.43-2.13Zm-22,23.28a5.58,5.58,0,0,1,1.64-3.75l5.42-6.19a5.59,5.59,0,0,1,3.51-2.11,5.53,5.53,0,0,1,5.48,4.8,5.61,5.61,0,0,1-1.63,3.76l-5.43,6.18a5.56,5.56,0,0,1-3.51,2.12,5.55,5.55,0,0,1-5.48-4.81Zm6.41.74,5.73-6.54c.91-1,.95-1.92.12-2.65s-1.71-.58-2.61.46L135.54,343c-.91,1-.95,1.92-.11,2.65S137.13,346.25,138,345.21Z"/><line class="cls-14" x1="162.06" y1="302.45" x2="158.82" y2="306.15"/><line class="cls-14" x1="164.14" y1="304.28" x2="160.9" y2="307.97"/><path class="cls-14" d="M161.81,304.83s.46-15.7,14-29.26"/><path class="cls-15" d="M675.6,423.63l-14.72-2.93a6.09,6.09,0,0,0-6.37,2.77l-7.87,12.77a6.06,6.06,0,0,0-.4,5.62l15.62,35.87a6.09,6.09,0,0,0,8,3.15L692.46,471a6.08,6.08,0,0,0,3.15-8L680,427.16A6.09,6.09,0,0,0,675.6,423.63Zm-14.36,6.59a3.5,3.5,0,1,1,1.82-4.61A3.5,3.5,0,0,1,661.24,430.22Z"/><path class="cls-13" d="M661.82,458.4a5.54,5.54,0,0,1-2.7-3.08l-3.29-7.54a5.62,5.62,0,0,1-.42-4.08,5.55,5.55,0,0,1,6.69-2.91,5.62,5.62,0,0,1,2.7,3.08l3.28,7.54a5.57,5.57,0,0,1,.42,4.08,5.57,5.57,0,0,1-6.68,2.91Zm3.4-5.48-3.48-8c-.55-1.26-1.33-1.67-2.35-1.23s-1.24,1.3-.69,2.56l3.47,8c.55,1.27,1.34,1.68,2.35,1.24S665.77,454.18,665.22,452.92Zm3.92-16.18,3-1.29,1.69,35.17-3,1.29Zm11.69,29.84a5.62,5.62,0,0,1-2.7-3.08L674.84,456a5.59,5.59,0,0,1-.41-4.07,5.53,5.53,0,0,1,6.68-2.91,5.62,5.62,0,0,1,2.7,3.08l3.29,7.54a5.61,5.61,0,0,1,.41,4.08,5.56,5.56,0,0,1-6.68,2.91Zm3.4-5.48-3.47-8c-.55-1.26-1.34-1.67-2.35-1.23s-1.25,1.29-.7,2.56l3.47,8c.56,1.27,1.34,1.68,2.35,1.24S684.78,462.36,684.23,461.1Z"/><line class="cls-14" x1="655.78" y1="421.15" x2="657.74" y2="425.65"/><line class="cls-14" x1="658.32" y1="420.04" x2="660.28" y2="424.55"/><path class="cls-14" d="M657.83,422.38s-14-7.11-20.5-25.16"/><path class="cls-16" d="M349.3,441.24a9.68,9.68,0,0,1-8.07-4.31l-27-40.31H123.13a9.7,9.7,0,1,1,0-19.39H319.44a9.7,9.7,0,0,1,8.06,4.3l29.85,44.62a9.7,9.7,0,0,1-8.05,15.09Z"/><path class="cls-17" d="M631.41,425.89a9.69,9.69,0,0,0-7.88-4.05H354.4l-27-40.31a9.69,9.69,0,0,0-8.06-4.3H260.3a9.7,9.7,0,1,0,0,19.39h53.89l25.94,38.78,10,45.87a.2.2,0,0,0,0,.07l28.29,130.42a9.7,9.7,0,0,0,9.48,7.64H563.2a9.71,9.71,0,0,0,9.19-6.59l60.33-178.16A9.71,9.71,0,0,0,631.41,425.89Zm-31,43.76h-16V441.24H610ZM371.62,489h32.53v45.79h-22.6Zm51.92,0h34.23v45.79H423.54Zm87.86-19.39H477.17V441.24H511.4Zm19.39-28.41H565v28.41H530.79Zm-73,28.41H423.54V441.24h34.23Zm0,84.57V600H423.54V554.22Zm19.4,0H511.4V600H477.17Zm0-19.39V489H511.4v45.79ZM530.79,489H565v45.79H530.79Zm53.63,27.77V489h9.4ZM404.15,441.24v28.41H367.41l-6.16-28.41Zm-18.39,113h18.39V600h-8.46ZM556.25,600H530.79V554.22H565v19.86Z"/><path class="cls-18" d="M304.83,400.15H123.13a13.23,13.23,0,0,1,0-26.45h181.7a13.23,13.23,0,0,1,0,26.45Z"/><rect class="cls-19" x="242" y="275.22" width="18.65" height="11.95" rx="3.51" transform="translate(324.61 651.14) rotate(-149.42)"/><rect class="cls-19" x="221.12" y="263.27" width="18.65" height="11.95" rx="3.51" transform="translate(291.84 618.28) rotate(-149.42)"/><rect class="cls-19" x="200.24" y="251.32" width="18.65" height="11.95" rx="3.51" transform="translate(259.06 585.42) rotate(-149.42)"/><rect class="cls-19" x="179.36" y="239.37" width="18.65" height="11.95" rx="3.51" transform="translate(226.28 552.55) rotate(-149.42)"/><rect class="cls-19" x="158.47" y="227.42" width="18.65" height="11.95" rx="3.51" transform="translate(193.5 519.69) rotate(-149.42)"/><rect class="cls-13" x="261.76" y="318.24" width="46.53" height="213.19" transform="translate(729.28 678.55) rotate(153.59)"/><path class="cls-20" d="M258.46,319l.65-28.63L150,223.8a34.45,34.45,0,0,0-2.21,35.26c9.78,19.7,38.39,29.69,38.39,29.69l3.62,29.52,27,21.45Z"/><rect class="cls-19" x="215.84" y="329.02" width="46.53" height="6.69" transform="translate(601.09 523.69) rotate(153.59)"/><rect class="cls-19" x="235.26" y="368.13" width="46.53" height="6.69" transform="translate(655.31 589.18) rotate(153.59)"/><rect class="cls-19" x="254.68" y="407.24" width="46.53" height="6.69" transform="translate(709.52 654.68) rotate(153.59)"/><rect class="cls-19" x="274.11" y="446.34" width="46.53" height="6.69" transform="translate(763.74 720.17) rotate(153.59)"/><rect class="cls-19" x="293.53" y="485.45" width="46.53" height="6.69" transform="translate(817.95 785.67) rotate(153.59)"/><polyline class="cls-21" points="245.41 292.76 254.52 324.71 347.86 512.65"/><polyline class="cls-21" points="224.53 280.81 247.34 328.28 340.68 516.22"/><polyline class="cls-21" points="204.65 268.36 239.11 332.37 332.44 520.3"/><polyline class="cls-21" points="182.77 256.91 230.92 336.43 324.26 524.37"/><polyline class="cls-21" points="161.89 244.96 223.5 340.12 316.84 528.05"/><path class="cls-19" d="M242.18,294.36A3.61,3.61,0,1,1,247,296,3.61,3.61,0,0,1,242.18,294.36Z"/><path class="cls-19" d="M221.3,282.41a3.61,3.61,0,1,1,4.84,1.63A3.61,3.61,0,0,1,221.3,282.41Z"/><path class="cls-19" d="M200.41,270.46a3.61,3.61,0,1,1,4.85,1.63A3.63,3.63,0,0,1,200.41,270.46Z"/><path class="cls-19" d="M179.53,258.51a3.61,3.61,0,1,1,4.84,1.63A3.62,3.62,0,0,1,179.53,258.51Z"/><path class="cls-19" d="M158.65,246.56a3.61,3.61,0,1,1,4.84,1.63A3.61,3.61,0,0,1,158.65,246.56Z"/><path class="cls-22" d="M306.84,619.4a9.7,9.7,0,0,1-9.44-7.5L255.92,433.74a9.7,9.7,0,0,1,18.89-4.4l41.48,178.17A9.7,9.7,0,0,1,309,619.15,9.84,9.84,0,0,1,306.84,619.4Z"/><path class="cls-23" d="M346.29,619.4a9.69,9.69,0,0,1-9.43-7.5L295.38,433.74a9.7,9.7,0,0,1,18.89-4.4l41.48,178.17a9.7,9.7,0,0,1-7.25,11.64A9.86,9.86,0,0,1,346.29,619.4Z"/><rect class="cls-24" x="367.97" y="352.29" width="189.44" height="260.24" rx="9.78"/><rect class="cls-25" x="298.31" y="352.29" width="169.98" height="260.24" rx="9.78"/><rect class="cls-26" x="354.69" y="352.29" width="56.76" height="27.11"/><polygon class="cls-13" points="335.18 395.28 323.91 379.39 312.65 395.28 317.27 395.28 317.27 406.1 330.55 406.1 330.55 395.28 335.18 395.28"/><rect class="cls-13" x="312.65" y="407.58" width="22.53" height="5.15"/><rect class="cls-13" x="475.69" y="375.02" width="39.69" height="7.74"/><rect class="cls-13" x="475.69" y="391.67" width="34.31" height="5.87"/><rect class="cls-13" x="475.69" y="402.27" width="34.31" height="5.87"/><path class="cls-27" d="M383.36,285.83H531.09a0,0,0,0,1,0,0v58.75a7.63,7.63,0,0,1-7.63,7.63H391a7.63,7.63,0,0,1-7.63-7.63V285.83A0,0,0,0,1,383.36,285.83Z"/><path class="cls-28" d="M329,285.83H461.59a0,0,0,0,1,0,0v58.75a7.63,7.63,0,0,1-7.63,7.63H336.66a7.63,7.63,0,0,1-7.63-7.63V285.83A0,0,0,0,1,329,285.83Z"/><path class="cls-29" d="M388.3,265.3H529.88a8.15,8.15,0,0,1,8.15,8.15V288a0,0,0,0,1,0,0H380.15a0,0,0,0,1,0,0V273.46A8.15,8.15,0,0,1,388.3,265.3Z"/><path class="cls-30" d="M330.24,265.3H455.6a8.15,8.15,0,0,1,8.15,8.15V288a0,0,0,0,1,0,0H322.09a0,0,0,0,1,0,0V273.46A8.15,8.15,0,0,1,330.24,265.3Z"/><rect class="cls-19" x="469.06" y="297.79" width="24.29" height="38.39"/><polygon class="cls-19" points="351.44 321.32 399.22 304.02 388.22 318.42 417.42 309.02 412.02 321.32 443.21 310.82 397.32 334.01 406.42 316.82 367.63 331.41 384.83 314.22 342.64 332.01 351.44 321.32"/><path class="cls-31" d="M422.35,445.52H570.09a0,0,0,0,1,0,0V596.08a7.63,7.63,0,0,1-7.63,7.63H430a7.63,7.63,0,0,1-7.63-7.63V445.52A0,0,0,0,1,422.35,445.52Z"/><path class="cls-32" d="M368,445.52H500.59a0,0,0,0,1,0,0V596.08a7.63,7.63,0,0,1-7.63,7.63H375.65a7.63,7.63,0,0,1-7.63-7.63V445.52A0,0,0,0,1,368,445.52Z"/><path class="cls-33" d="M427.3,425H568.87a8.15,8.15,0,0,1,8.15,8.15v14.57a0,0,0,0,1,0,0H419.14a0,0,0,0,1,0,0V433.15A8.15,8.15,0,0,1,427.3,425Z"/><path class="cls-34" d="M369.24,425H494.6a8.15,8.15,0,0,1,8.15,8.15v14.57a0,0,0,0,1,0,0H361.08a0,0,0,0,1,0,0V433.15A8.15,8.15,0,0,1,369.24,425Z"/><rect class="cls-13" x="508.05" y="549.3" width="24.29" height="38.39"/><path class="cls-35" d="M339,468.29V448.6a33.66,33.66,0,0,1,33.66-33.66h0a33.66,33.66,0,0,1,33.66,33.66v19.69"/><polygon class="cls-36" points="396.36 453.17 265.55 453.17 257.33 608.99 404.57 608.99 396.36 453.17"/><path class="cls-37" d="M303.87,468.29a5.41,5.41,0,1,0-5.4,5.4A5.41,5.41,0,0,0,303.87,468.29Z"/><path class="cls-37" d="M371.19,468.29a5.41,5.41,0,1,0-5.41,5.4A5.41,5.41,0,0,0,371.19,468.29Z"/><polygon class="cls-38" points="429.28 453.17 396.36 453.17 404.57 608.99 437.49 608.99 429.28 453.17"/><polygon class="cls-39" points="412.82 453.17 396.36 453.17 404.57 608.99 421.03 608.99 412.82 453.17"/><path class="cls-40" d="M298.47,468.29V448.6a33.65,33.65,0,0,1,33.65-33.66h0a33.66,33.66,0,0,1,33.66,33.66v19.69"/><path class="cls-13" d="M500.4,383s-3.52,9.75-.82,25.08c3,17,14.89,27.92,37.32,39s60,10.56,66.35,6.24-.06-13.62-.06-13.62Z"/><path class="cls-41" d="M641.54,383h0a70.22,70.22,0,0,0-58.78-79.84C547,297.55,513,320.84,503.92,355.88l0,.09s-.72,3.41-.91,4.48a213.34,213.34,0,0,0-3.69,28,39.18,39.18,0,0,0,.37,6.85c2.55,19.47,15.45,36,33.39,44l.2.09A150.15,150.15,0,0,0,593,452.34h0a22.92,22.92,0,0,0,15.21-5.64,106,106,0,0,0,17.42-20.08C639.44,406.56,640.86,389.57,641.54,383Z"/><path class="cls-13" d="M637.28,382.62s-11.92-1.89-45.74-10.41-55.71-18-61.92-18.89-12.5,7.74-9.24,20,2.7,25.51,36.09,38.45,54.65,11.05,63.81,7.93S638.52,401.79,637.28,382.62Z"/><path class="cls-42" d="M637.26,389.88c.09-1.34.13-2.71.12-4.1l-50.85,26L624,379.94c-6.07-1.33-14.46-3.27-25.63-6L556,395.66l29-25.13c-10.59-2.83-19.85-5.69-27.68-8.25l-33.87,22.87c3.14,8.76,10.06,17.78,33,26.66,17.82,6.91,32.15,9.57,43.06,10.09Z"/><path class="cls-43" d="M637.33,365.23s-1.67-18.31-11.56-32S600.48,312.65,594,312.12s12.92,12.55,18.11,26.56,2.14,28.64,10.32,34.9S637.51,375.87,637.33,365.23Z"/><path class="cls-44" d="M357.64,724.08H333.76v80.44h23.88a40.22,40.22,0,1,0,0-80.44Z"/><circle class="cls-45" cx="333.76" cy="764.3" r="40.22" transform="translate(-160.86 92.8) rotate(-12.78)"/><path class="cls-46" d="M401,760.33a42.65,42.65,0,0,0-42.64-42.65H333v42.65Z"/><path class="cls-47" d="M333,717.68a42.66,42.66,0,0,0-42.65,42.65h85.29A42.65,42.65,0,0,0,333,717.68Z"/><path class="cls-48" d="M562.46,724.08H538.58v80.44h23.88a40.22,40.22,0,0,0,0-80.44Z"/><circle class="cls-49" cx="538.58" cy="764.3" r="40.22" transform="translate(-382.69 604.69) rotate(-45)"/><path class="cls-50" d="M605.83,760.33a42.66,42.66,0,0,0-42.65-42.65H537.86v42.65Z"/><path class="cls-51" d="M537.86,717.68a42.65,42.65,0,0,0-42.64,42.65h85.29A42.66,42.66,0,0,0,537.86,717.68Z"/><path class="cls-52" d="M228.92,724.08H205v80.44h23.88a40.22,40.22,0,1,0,0-80.44Z"/><circle class="cls-53" cx="205.04" cy="764.3" r="40.22" transform="translate(-170.11 67.55) rotate(-13.28)"/><circle class="cls-54" cx="205.04" cy="764.3" r="22.83" transform="translate(-584.85 716.65) rotate(-71.53)"/><circle class="cls-55" cx="211.32" cy="764.3" r="15.08" transform="translate(-569.09 623.68) rotate(-64.33)"/><path class="cls-56" d="M272.28,760.33a42.65,42.65,0,0,0-42.64-42.65H204.32v42.65Z"/><path class="cls-57" d="M204.32,717.68a42.65,42.65,0,0,0-42.64,42.65H247A42.65,42.65,0,0,0,204.32,717.68Z"/><path class="cls-58" d="M433.74,724.08H409.86v80.44h23.88a40.22,40.22,0,0,0,0-80.44Z"/><circle class="cls-59" cx="409.86" cy="764.3" r="40.22" transform="translate(-420.39 513.68) rotate(-45)"/><circle class="cls-60" cx="409.86" cy="764.3" r="22.83" transform="translate(-453.59 845.44) rotate(-67.17)"/><circle class="cls-61" cx="416.15" cy="764.3" r="15.08" transform="translate(-163.48 115.18) rotate(-13.2)"/><path class="cls-62" d="M477.11,760.33a42.65,42.65,0,0,0-42.65-42.65H409.14v42.65Z"/><path class="cls-63" d="M409.14,717.68a42.65,42.65,0,0,0-42.64,42.65h85.29A42.65,42.65,0,0,0,409.14,717.68Z"/><path class="cls-64" d="M563.7,717.65H343.12a9.71,9.71,0,0,1-8.81-13.76l45.25-98.24a9.7,9.7,0,0,1,17.62,8.11l-38.92,84.49H563.7a9.7,9.7,0,0,1,0,19.4Z"/><path class="cls-65" d="M623.52,421.84H486.37a9.7,9.7,0,0,0,0,19.4h33.85l-9.62,28.41H470.18a9.7,9.7,0,1,0,0,19.39H504l-15.5,45.79H448.11a9.7,9.7,0,1,0,0,19.39H482L466.45,600H426a9.7,9.7,0,1,0,0,19.39H563.19a9.7,9.7,0,1,0,0-19.39h-24.9l15.5-45.79h31.48a9.7,9.7,0,0,0,0-19.39H560.36L575.86,489h31.48a9.7,9.7,0,0,0,0-19.39H582.43l9.62-28.41h31.47a9.7,9.7,0,1,0,0-19.4ZM517.81,600H486.93l15.51-45.79h30.88Zm22.07-65.18H509L524.51,489h30.88ZM562,469.65H531.07l9.62-28.41h30.88Z"/><path class="cls-66" d="M426,717.65H205.46a9.7,9.7,0,0,1-8.81-13.76l45.25-98.24a9.69,9.69,0,0,1,17.61,8.11L220.6,698.25H426a9.7,9.7,0,0,1,0,19.4Z"/><path class="cls-67" d="M494.25,425.89a9.71,9.71,0,0,0-7.88-4.05H217.23l-27-40.31a9.69,9.69,0,0,0-8.06-4.3H123.13a9.7,9.7,0,1,0,0,19.39H177L203,435.4l9.95,45.87v.07l28.3,130.42a9.68,9.68,0,0,0,9.47,7.64H426a9.69,9.69,0,0,0,9.18-6.59l60.33-178.16A9.7,9.7,0,0,0,494.25,425.89Zm-31,43.76h-16V441.24h25.59ZM234.45,489H267v45.79h-22.6Zm51.93,0h34.23v45.79H286.38Zm87.85-19.39H340V441.24h34.23Zm19.4-28.41h34.23v28.41H393.63Zm-73,28.41H286.38V441.24h34.23Zm0,84.57V600H286.38V554.22Zm19.39,0h34.23V600H340Zm0-19.39V489h34.23v45.79ZM393.63,489h34.23v45.79H393.63Zm53.63,27.77V489h9.4ZM267,441.24v28.41H230.24l-6.16-28.41Zm-18.39,113H267V600h-8.46ZM419.08,600H393.63V554.22h34.23v19.86Z"/><polygon class="cls-19" points="722.8 591.72 648.53 571.82 668.43 646.09 679.6 634.92 711.67 666.99 743.7 634.95 711.64 602.89 722.8 591.72"/><path class="cls-68" d="M352.51,89.3a78,78,0,0,0-35.26-11.87h0A77.86,77.86,0,0,0,293.82,79L276.5,82.87l-17.32,3.85a78,78,0,0,0-21.89,8.49h0a77.93,77.93,0,0,0-26.91,25.68l-22.53,35.33,39.23,25,7.85-12.34,16,72.07,57.83-12.86,57.83-12.85-16-72.07L362.92,151l25-39.23Z"/><path class="cls-69" d="M282,107.73a28.16,28.16,0,0,0,21.9-30.26A78.62,78.62,0,0,0,293.82,79L276.5,82.87l-17.32,3.85a77.51,77.51,0,0,0-9.8,2.88A28.15,28.15,0,0,0,282,107.73Z"/><path class="cls-70" d="M266.84,133.4a14.28,14.28,0,0,1,19.92-4.73,14.29,14.29,0,0,1,20.05-4.16,14.46,14.46,0,0,1,3.88,19.74l-9.33,14.67a10.87,10.87,0,0,1-15,3.34l-14.67-9.33A14.47,14.47,0,0,1,266.84,133.4Z"/><path class="cls-71" d="M490.34,128.23l40.32,11.67a6.51,6.51,0,0,1,4.72,6.11c.14,6.8,1.07,19.48,5.62,28.51,6.5,12.91,29.32,26.6,29.32,26.6l1.19.63a28.09,28.09,0,0,1,14.91,27.37l-.21,2.33-126.44-36.6Z"/><path class="cls-72" d="M564.37,197.24c-7.22-5-19-14-23.37-22.72-4.55-9-5.48-21.71-5.62-28.51a6.51,6.51,0,0,0-4.72-6.11l-11.25-3.26h0a12.64,12.64,0,0,1,9.13,11.55c.35,7.68,1.44,18.12,4.67,25.13,5.72,12.42,28.11,27.59,28.11,27.59l3-3.67Z"/><path class="cls-73" d="M589.35,231.05h0a32.19,32.19,0,0,0-21.2-32.44l-3.78-1.37-19,22.8Z"/><rect class="cls-74" x="453.24" y="212.01" width="138.95" height="12.36" rx="1.89" transform="translate(81.28 -136.74) rotate(16.14)"/><path class="cls-75" d="M540.28,149.87l-14.26,1a3,3,0,0,0-2.79,3.23h0a3,3,0,0,0,3.24,2.8l14.25-1a3,3,0,0,0,2.79-3.24h0A3,3,0,0,0,540.28,149.87Z"/><path class="cls-76" d="M542,161.51l-14.25,1.05a3,3,0,0,0-2.8,3.24h0a3,3,0,0,0,3.24,2.8l14.25-1a3,3,0,0,0,2.8-3.24h0A3,3,0,0,0,542,161.51Z"/><path class="cls-77" d="M544.84,171.28,531,174.7a3,3,0,0,0-2.21,3.66h0a3,3,0,0,0,3.66,2.22l13.88-3.43a3,3,0,0,0,2.21-3.66h0A3,3,0,0,0,544.84,171.28Z"/><path class="cls-78" d="M551.56,181l-12.82,6.3a3,3,0,0,0-1.38,4h0a3,3,0,0,0,4,1.38l12.82-6.3a3,3,0,0,0,1.38-4.05h0A3,3,0,0,0,551.56,181Z"/><path class="cls-79" d="M505.49,184.75a13.37,13.37,0,1,0-16.56,9.12A13.38,13.38,0,0,0,505.49,184.75Z"/><path class="cls-19" d="M118.93,192.47h-6.06v-6.06a5.65,5.65,0,0,0-5.66-5.66h0a5.66,5.66,0,0,0-5.67,5.66v6.06H95.48a5.67,5.67,0,0,0,0,11.33h6.06v6.06a5.66,5.66,0,0,0,5.67,5.66h0a5.65,5.65,0,0,0,5.66-5.66V203.8h6.06a5.67,5.67,0,1,0,0-11.33Z"/><path class="cls-19" d="M58.2,678.71H52.14v-6.06A5.66,5.66,0,0,0,46.48,667h0a5.66,5.66,0,0,0-5.67,5.66v6.06H34.75a5.67,5.67,0,0,0,0,11.33h6.06v6.06a5.67,5.67,0,0,0,5.67,5.67h0a5.67,5.67,0,0,0,5.66-5.67V690H58.2a5.67,5.67,0,1,0,0-11.33Z"/><path class="cls-19" d="M657.46,155.67h-6.07v-6.06a5.65,5.65,0,0,0-5.66-5.66h0a5.65,5.65,0,0,0-5.66,5.66v6.06H634A5.67,5.67,0,1,0,634,167h6.06v6.06a5.66,5.66,0,0,0,5.66,5.67h0a5.66,5.66,0,0,0,5.66-5.67V167h6.07a5.67,5.67,0,0,0,0-11.33Z"/><path class="cls-19" d="M419.49,71.19H415.8V67.5a3.45,3.45,0,0,0-3.45-3.44h0a3.44,3.44,0,0,0-3.44,3.44v3.69h-3.69a3.45,3.45,0,1,0,0,6.89h3.69v3.69a3.44,3.44,0,0,0,3.44,3.45h0a3.45,3.45,0,0,0,3.45-3.45V78.08h3.69a3.45,3.45,0,0,0,0-6.89Z"/><path class="cls-19" d="M662.33,714.24h-3.69v-3.69a3.45,3.45,0,0,0-3.45-3.45h0a3.45,3.45,0,0,0-3.44,3.45v3.69h-3.69a3.45,3.45,0,1,0,0,6.89h3.69v3.69a3.44,3.44,0,0,0,3.44,3.44h0a3.44,3.44,0,0,0,3.45-3.44v-3.69h3.69a3.45,3.45,0,0,0,0-6.89Z"/><path class="cls-19" d="M154.82,477.94h-3.69v-3.69a3.45,3.45,0,0,0-3.45-3.45h0a3.45,3.45,0,0,0-3.44,3.45v3.69h-3.69a3.45,3.45,0,1,0,0,6.89h3.69v3.69a3.44,3.44,0,0,0,3.44,3.44h0a3.44,3.44,0,0,0,3.45-3.44v-3.69h3.69a3.45,3.45,0,0,0,0-6.89Z"/><path class="cls-19" d="M791.08,588.78H785v-6.07a5.66,5.66,0,0,0-5.67-5.66h0a5.65,5.65,0,0,0-5.66,5.66v6.07h-6.06a5.66,5.66,0,1,0,0,11.32h6.06v6.06a5.66,5.66,0,0,0,5.66,5.67h0a5.67,5.67,0,0,0,5.67-5.67V600.1h6.06a5.66,5.66,0,0,0,0-11.32Z"/></g></g></svg>